# xmcd
#
# Track frame offsets: 
#        150
#        13748
#        31323
#        44008
#        61588
#        80133
#        96018
#        114253
#        131060
#        143663
#        157315
#        177693
#        194663
#
# Disc length: 2748 seconds
#
# Revision: 2
# Processed by: cddbd v1.5.2PL0 Copyright (c) Steve Scherf et al.
# Submitted via: ExactAudioCopy v0.95b4
#
DISCID=bb0aba0d
DTITLE=Colin Buchanan - Hard Times
DYEAR=1992
DGENRE=Country
TTITLE0=Silver Bullet
TTITLE1=Hard Times
TTITLE2=The Local District Show
TTITLE3=He's Alright
TTITLE4=North Bourke Bridge
TTITLE5=A Drover's Wife
TTITLE6=When It Rained
TTITLE7=The Bimbi Talent Quest
TTITLE8=Handyman
TTITLE9=In His Blood
TTITLE10=Living In Town
TTITLE11=Kurrajong
TTITLE12=Jingle Bells (Bonus Track)
EXTD=YEAR: 1992
EXTT0=
EXTT1=
EXTT2=
EXTT3=
EXTT4=
EXTT5=
EXTT6=
EXTT7=
EXTT8=
EXTT9=
EXTT10=
EXTT11=
EXTT12=
PLAYORDER=
